<svg width="107" height="100" viewBox="0 0 107 100" fill="none" xmlns="http://www.w3.org/2000/svg">
<path d="M102.149 22.5398H31.3335C30.1985 22.5399 29.2054 22.9647 28.3542 23.8137C27.5027 24.6631 27.077 25.6542 27.077 26.7867V73.217C27.077 74.3489 27.5027 75.3398 28.3542 76.1898C29.2054 77.0386 30.1986 77.4636 31.3335 77.4636H75.7526C76.8885 77.4636 77.8819 77.0386 78.7329 76.1898C79.585 75.3398 80.01 74.3489 80.01 73.217V61.0523H106.406V80.5773C106.406 85.7682 104.514 90.25 100.729 94.025C97.0393 97.7057 92.5929 99.5466 87.39 99.5466H19.6975C14.4941 99.5466 10 97.7057 6.2158 94.025C2.52602 90.25 0.680908 85.7682 0.680908 80.5773V19.4258C0.680908 14.2355 2.52602 9.79942 6.2158 6.11908C10 2.34454 14.4942 0.457153 19.6975 0.457153H102.149V22.5398ZM80.01 61.0432H53.5466V38.9604H80.01V61.0432Z" fill="white"/>
</svg>
